<svg xmlns="http://www.w3.org/2000/svg" viewBox="0 0 96 96" fill="none">
<defs><linearGradient id="a" x1="16" y1="12" x2="80" y2="84" gradientUnits="userSpaceOnUse"><stop stop-color="#6048FF"/><stop offset=".55" stop-color="#8A55F7"/><stop offset="1" stop-color="#12C8D8"/></linearGradient></defs>
<circle cx="48" cy="28" r="13" fill="url(#a)"/>
<path d="M25 72c0-13.3 10.3-23 23-23s23 9.7 23 23v5H25v-5Z" fill="url(#a)"/>
<circle cx="19" cy="37" r="9" stroke="#13BED2" stroke-width="6"/>
<circle cx="77" cy="37" r="9" stroke="#13BED2" stroke-width="6"/>
<path d="M7 73c0-10 5.4-17 14-17 5.4 0 9.7 2.7 12.1 7.1A27 27 0 0 0 25 78H7v-5ZM89 73c0-10-5.4-17-14-17-5.4 0-9.7 2.7-12.1 7.1A27 27 0 0 1 71 78h18v-5Z" fill="#13BED2" opacity=".92"/>
<path d="M48 9v5M17 16l4 4M79 16l-4 4" stroke="#6048FF" stroke-width="4" stroke-linecap="round"/>
</svg>