<svg xmlns="http://www.w3.org/2000/svg" viewBox="0 0 96 96" fill="none">
<defs><linearGradient id="a" x1="16" y1="12" x2="80" y2="84" gradientUnits="userSpaceOnUse"><stop stop-color="#12C8D8"/><stop offset=".6" stop-color="#27A8DD"/><stop offset="1" stop-color="#6048FF"/></linearGradient></defs>
<path d="M15 82V31h25v51H15ZM40 82V13h28v69H40ZM68 82V40h13v42H68Z" fill="url(#a)"/>
<path d="M22 40h11M22 50h11M22 60h11M22 70h11M48 24h12M48 35h12M48 46h12M48 57h12M48 68h12M72 51h5M72 62h5M72 73h5" stroke="#fff" stroke-width="3" stroke-linecap="round" opacity=".95"/>
<path d="M9 82h78" stroke="#6048FF" stroke-width="6" stroke-linecap="round"/>
<circle cx="18" cy="17" r="7" fill="#6048FF" opacity=".12"/>
<path d="M18 13v8M14 17h8" stroke="#6048FF" stroke-width="2" stroke-linecap="round"/>
</svg>