<svg xmlns="http://www.w3.org/2000/svg" viewBox="0 0 96 96" fill="none">
<defs><linearGradient id="a" x1="12" y1="20" x2="84" y2="78" gradientUnits="userSpaceOnUse"><stop stop-color="#6048FF"/><stop offset=".52" stop-color="#8A55F7"/><stop offset="1" stop-color="#12C8D8"/></linearGradient></defs>
<path d="M8 27h20l14 14-11 11-13-10H8V27Z" fill="url(#a)"/>
<path d="M88 27H68L54 41l11 11 13-10h10V27Z" fill="url(#a)"/>
<path d="m35 39 12 12c3 3 7 3 10 0l5-5-12-12c-4-4-10-4-15 0Z" fill="#FFB07C"/>
<path d="m31 51 14 14c3 3 7 3 10 0l5-5-15-15c-4-4-9-4-14 0Z" fill="#FF9C69"/>
<path d="M28 62c5 7 13 11 22 11" stroke="#6048FF" stroke-width="4" stroke-linecap="round"/>
<circle cx="75" cy="69" r="12" fill="#6048FF"/>
<path d="m70 69 3 3 7-8" stroke="#fff" stroke-width="3" stroke-linecap="round" stroke-linejoin="round"/>
<path d="M48 12v7M25 17l4 6M71 17l-4 6" stroke="#12C8D8" stroke-width="4" stroke-linecap="round"/>
</svg>